# generated from PmQm by Jehee Lee
:FULLY-SPECIFIED
:DEGREES
81
root 14.5737 39.8016 3.42889 -53.4861 87.6396 -46.8194
RightUpLeg 9.12052 0.486354 0.435129
RightLeg 1.42243 7.95791 -0.967368
RightFoot -2.68507 -0.539411 5.9911
RightToes 4.07452e-010 -1.59028e-015 9.93923e-017
Spine -6.30628 -0.240742 -1.16501
Spine1 -1.32292 -0.725937 2.46455
HEad -23.4253 1.77097 0.481374
LeftShoulder1 9.93923e-017 -0 1.22299e-017
LeftArm 83.2068 -40.3232 -72.0449
LeftForeArm -33.7599 -70.37 83.2181
LeftHand -1.61587 1.20995 31.6341
RightShoulder 1.98785e-016 -4.96962e-017 1.55301e-017
RightArm 76.3303 26.858 77.4028
RightForeArm -1.97911 55.0528 -64.8517
RightHand 8.23946 -22.5913 -38.9183
LeftUpLeg 5.48343 -0.40467 0.326757
LeftLeg 9.37623 -1.68114 3.89016
LeftFoot -6.88338 0.102936 -2.1613
LeftToes 1.53707e-010 -1.11459e-010 1.58109e-011
82
root 14.5569 39.8002 3.43669 -58.3385 87.8119 -51.5499
RightUpLeg 9.25203 0.475131 0.4508
RightLeg 1.44722 7.70928 -0.973926
RightFoot -2.69985 -0.539708 5.98753
RightToes 4.07452e-010 -1.59028e-015 9.93923e-017
Spine -6.50721 -0.260727 -1.28818
Spine1 -1.08328 -0.743672 2.45714
HEad -23.9714 1.83116 0.712368
LeftShoulder1 9.93923e-017 -0 1.22299e-017
LeftArm 90.5205 -41.7654 -76.0118
LeftForeArm -15.7654 -66.4284 61.5053
LeftHand -1.76794 1.11358 33.3666
RightShoulder 1.98785e-016 -4.96962e-017 1.55301e-017
RightArm 81.7925 27.6954 80.1357
RightForeArm 8.03732 49.4762 -52.4921
RightHand 9.5481 -23.1445 -44.4968
LeftUpLeg 5.54261 -0.42075 0.342174
LeftLeg 9.40188 -1.93876 3.88267
LeftFoot -6.87141 0.103556 -2.15799
LeftToes 1.53707e-010 -1.11459e-010 1.58109e-011
83
root 14.5308 39.7969 3.4418 -62.1009 87.9474 -55.1965
RightUpLeg 9.29657 0.464282 0.437042
RightLeg 1.58301 7.56133 -0.997065
RightFoot -2.74766 -0.541816 6.00318
RightToes 4.07452e-010 -1.59028e-015 9.93923e-017
Spine -7.06457 -0.197388 -1.15377
Spine1 -0.249503 -0.654142 2.14606
HEad -24.8738 1.79442 0.927788
LeftShoulder1 9.93923e-017 -0 1.22299e-017
LeftArm 98.2217 -42.5469 -81.1334
LeftForeArm -5.57143 -59.6534 45.6218
LeftHand -1.90806 1.11613 35.5667
RightShoulder 1.98785e-016 -4.96962e-017 1.55301e-017
RightArm 88.138 28.5305 83.4211
RightForeArm 10.7945 42.2074 -41.9238
RightHand 10.4735 -23.8392 -47.2439
LeftUpLeg 5.58525 -0.491403 0.307156
LeftLeg 9.44043 -2.04157 3.89657
LeftFoot -6.8673 0.102919 -2.14163
LeftToes 1.53707e-010 -1.11459e-010 1.58109e-011
84
root 14.492 39.7914 3.44731 -66.2459 88.0265 -59.2341
RightUpLeg 9.29655 0.47517 0.473127
RightLeg 1.74699 7.40772 -1.02714
RightFoot -2.7891 -0.544771 6.02792
RightToes 4.07452e-010 -1.59028e-015 9.93923e-017
Spine -7.69969 -0.107285 -0.764595
Spine1 0.804435 -0.512893 1.59512
HEad -25.9616 1.60351 0.995739
LeftShoulder1 9.93923e-017 -0 1.22299e-017
LeftArm 106.415 -42.7997 -86.8869
LeftForeArm -2.17012 -51.2889 35.062
LeftHand -2.05566 1.09838 37.6874
RightShoulder 1.98785e-016 -4.96962e-017 1.55301e-017
RightArm 96.051 29.1733 87.0796
RightForeArm 6.95595 34.5307 -33.7885
RightHand 9.54346 -23.6774 -42.9639
LeftUpLeg 5.54391 -0.654923 0.302755
LeftLeg 9.59691 -2.04673 3.92129
LeftFoot -6.89932 0.100728 -2.10963
LeftToes 1.53707e-010 -1.11459e-010 1.58109e-011
85
root 14.4385 39.7843 3.45333 -72.2706 88.0402 -65.1693
RightUpLeg 9.27121 0.522038 0.597248
RightLeg 1.89278 7.18732 -1.04873
RightFoot -2.79619 -0.548381 6.0598
RightToes 4.07452e-010 -1.59028e-015 9.93923e-017
Spine -7.98848 -0.0653919 -0.233964
Spine1 1.52521 -0.404724 0.950398
HEad -27.1802 1.43037 1.10765
LeftShoulder1 9.93923e-017 -0 1.22299e-017
LeftArm 115.9 -42.5453 -92.4806
LeftForeArm -3.99376 -42.6146 28.0062
LeftHand -2.19941 1.04639 39.4359
RightShoulder 1.98785e-016 -4.96962e-017 1.55301e-017
RightArm 105.783 30.3797 90.5428
RightForeArm 0.495522 27.942 -28.1081
RightHand 8.11929 -22.8568 -37.5264
LeftUpLeg 5.37766 -0.904275 0.378513
LeftLeg 9.90758 -2.04205 3.94718
LeftFoot -6.96624 0.100983 -2.10207
LeftToes 1.53707e-010 -1.11459e-010 1.58109e-011
86
root 14.3789 39.7787 3.45645 -76.9321 88.0048 -69.8
RightUpLeg 9.16084 0.579788 0.724651
RightLeg 2.0421 7.01576 -1.0596
RightFoot -2.77927 -0.551542 6.08722
RightToes 4.07452e-010 -1.59028e-015 9.93923e-017
Spine -7.98317 -0.0676509 0.324816
Spine1 1.95688 -0.333657 0.287854
HEad -28.7483 1.45211 1.50116
LeftShoulder1 9.93923e-017 -0 1.22299e-017
LeftArm 128.278 -42.1204 -97.7374
LeftForeArm -10.9723 -35.2523 23.3328
LeftHand -2.29366 1.03539 40.731
RightShoulder 1.98785e-016 -4.96962e-017 1.55301e-017
RightArm 118.361 30.565 94.2351
RightForeArm -8.36848 23.1012 -24.2802
RightHand 8.15215 -22.7871 -37.8728
LeftUpLeg 5.13546 -1.17076 0.457735
LeftLeg 10.236 -1.97545 3.97337
LeftFoot -7.01137 0.104841 -2.1308
LeftToes 1.53707e-010 -1.11459e-010 1.58109e-011
87
root 14.3268 39.7771 3.45658 -77.154 87.9759 -70.0715
RightUpLeg 8.95479 0.605629 0.763703
RightLeg 2.17815 6.98818 -1.05794
RightFoot -2.75273 -0.551266 6.07875
RightToes 4.07452e-010 -1.59028e-015 9.93923e-017
Spine -7.97507 -0.0601375 0.818258
Spine1 2.39603 -0.251927 -0.326667
HEad -30.7181 1.56035 2.04557
LeftShoulder1 9.93923e-017 -0 1.22299e-017
LeftArm 143.084 -41.9158 -102.1
LeftForeArm -22.2973 -30.7172 20.5052
LeftHand -2.31509 1.09926 41.5461
RightShoulder 1.98785e-016 -4.96962e-017 1.55301e-017
RightArm 132.218 31.5861 97.4743
RightForeArm -19.7099 20.3669 -21.7405
RightHand 9.20582 -23.6873 -41.2066
LeftUpLeg 4.90351 -1.37847 0.455096
LeftLeg 10.4319 -1.80097 4.00211
LeftFoot -6.98782 0.108953 -2.16294
LeftToes 1.53707e-010 -1.11459e-010 1.58109e-011
88
root 14.2893 39.7794 3.45789 -74.9046 87.9645 -67.9181
RightUpLeg 8.7469 0.595173 0.740689
RightLeg 2.23542 7.04211 -1.03478
RightFoot -2.71048 -0.547265 6.03094
RightToes 4.07452e-010 -1.59028e-015 9.93923e-017
Spine -7.97825 -0.007162700005 1.18296
Spine1 2.75892 -0.136202 -0.793371
HEad -32.6953 1.45177 2.45309
LeftShoulder1 9.93923e-017 -0 1.22299e-017
LeftArm 157.343 -41.9896 -105.53
LeftForeArm -34.7512 -29.069 19.0906
LeftHand -2.27893 1.21354 41.9359
RightShoulder 1.98785e-016 -4.96962e-017 1.55301e-017
RightArm 136.228 32.5835 100.626
RightForeArm -21.4975 19.6567 -19.1285
RightHand 9.75824 -24.386 -42.1825
LeftUpLeg 4.71743 -1.509 0.40745
LeftLeg 10.4993 -1.60921 4.02541
LeftFoot -6.91483 0.111256 -2.1784
LeftToes 1.53707e-010 -1.11459e-010 1.58109e-011
89
root 14.2673 39.7834 3.46162 -73.0271 87.9426 -66.1375
RightUpLeg 8.60903 0.583431 0.726158
RightLeg 2.21127 7.11112 -0.996821
RightFoot -2.65545 -0.544834 5.99105
RightToes 4.07452e-010 -1.59028e-015 9.93923e-017
Spine -7.89504 0.0912788 1.41426
Spine1 2.87671 0.003769410001 -1.07312
HEad -34.2935 1.02462 2.79993
LeftShoulder1 9.93923e-017 -0 1.22299e-017
LeftArm 164.828 -42.2608 -108.649
LeftForeArm -40.5419 -28.5106 18.565
LeftHand -2.20755 1.35649 42.049
RightShoulder 1.98785e-016 -4.96962e-017 1.55301e-017
RightArm 119.598 34.1823 103.817
RightForeArm -1.42511 19.1105 -13.6394
RightHand 9.69679 -24.5577 -41.4226
LeftUpLeg 4.57497 -1.56713 0.394793
LeftLeg 10.5175 -1.50041 4.02982
LeftFoot -6.83993 0.113133 -2.19125
LeftToes 1.53707e-010 -1.11459e-010 1.58109e-011
90
root 14.2634 39.7875 3.46478 -70.9875 87.9029 -64.1809
RightUpLeg 8.5247 0.589886 0.723394
RightLeg 2.1697 7.22054 -0.970354
RightFoot -2.61497 -0.546242 5.98597
RightToes 4.07452e-010 -1.59028e-015 9.93923e-017
Spine -7.88872 0.196039 1.52332
Spine1 3.00394 0.128232 -1.19317
HEad -35.6722 0.552609 3.39751
LeftShoulder1 9.93923e-017 -0 1.22299e-017
LeftArm 159.332 -42.7988 -111.939
LeftForeArm -31.5217 -26.7279 18.2867
LeftHand -2.11399 1.52299 42.0261
RightShoulder 1.98785e-016 -4.96962e-017 1.55301e-017
RightArm 97.9331 36.0729 106.004
RightForeArm 22.4385 17.3674 -6.0994
RightHand 9.81812 -24.6181 -41.8683
LeftUpLeg 4.49122 -1.55427 0.411814
LeftLeg 10.5066 -1.4422 4.01805
LeftFoot -6.783 0.114204 -2.1981
LeftToes 1.53707e-010 -1.11459e-010 1.58109e-011
91
root 14.2803 39.7896 3.46712 -68.0069 87.856 -61.266
RightUpLeg 8.48487 0.602676 0.717117
RightLeg 2.12662 7.34 -0.968842
RightFoot -2.60436 -0.54678 5.97424
RightToes 4.07452e-010 -1.59028e-015 9.93923e-017
Spine -8.13819 0.229913 1.47651
Spine1 3.42664 0.153863 -1.12483
HEad -37.2509 0.364897 4.21594
LeftShoulder1 9.93923e-017 -0 1.22299e-017
LeftArm 154.591 -43.5652 -114.202
LeftForeArm -24.6516 -24.8714 16.9147
LeftHand -2.01398 1.69065 41.9087
RightShoulder 1.98785e-016 -4.96962e-017 1.55301e-017
RightArm 81.2437 37.8032 107.151
RightForeArm 39.5796 14.5928 -1.19582
RightHand 10.0303 -24.7288 -42.6241
LeftUpLeg 4.47616 -1.5142 0.417804
LeftLeg 10.4752 -1.36372 4.00857
LeftFoot -6.74749 0.111284 -2.16771
LeftToes 1.53707e-010 -1.11459e-010 1.58109e-011
92
root 14.3148 39.7884 3.47212 -66.2784 87.8202 -59.5687
RightUpLeg 8.5305 0.617595 0.741821
RightLeg 2.05105 7.33856 -0.98444
RightFoot -2.61398 -0.54282 5.92575
RightToes 4.07452e-010 -1.59028e-015 9.93923e-017
Spine -8.48893 0.155975 1.26985
Spine1 3.87792 0.0423675 -0.866819
HEad -38.9971 0.441702 4.94473
LeftShoulder1 9.93923e-017 -0 1.22299e-017
LeftArm 147.724 -44.3987 -115.748
LeftForeArm -16.1443 -24.0286 13.9917
LeftHand -1.92879 1.82323 41.71
RightShoulder 1.98785e-016 -4.96962e-017 1.55301e-017
RightArm 74.0316 38.9173 107.748
RightForeArm 46.6451 12.8946 0.598274
RightHand 9.93082 -24.7415 -42.1047
LeftUpLeg 4.50199 -1.50584 0.432772
LeftLeg 10.4836 -1.30313 4.0011
LeftFoot -6.74748 0.104264 -2.09935
LeftToes 1.53707e-010 -1.11459e-010 1.58109e-011
93
root 14.3624 39.7839 3.47925 -67.2157 87.8143 -60.4845
RightUpLeg 8.66623 0.640852 0.806347
RightLeg 1.98415 7.20002 -1.01296
RightFoot -2.65221 -0.538019 5.88852
RightToes 4.07452e-010 -1.59028e-015 9.93923e-017
Spine -8.73132 0.0219698 0.978703
Spine1 4.05145 -0.140715 -0.530321
HEad -40.5697 0.546239 5.52745
LeftShoulder1 9.93923e-017 -0 1.22299e-017
LeftArm 141.821 -45.0496 -116.8
LeftForeArm -9.08497 -23.3822 11.4326
LeftHand -1.86082 1.92171 41.4767
RightShoulder 1.98785e-016 -4.96962e-017 1.55301e-017
RightArm 72.479 39.5959 108.032
RightForeArm 48.3797 12.3431 1.06738
RightHand 9.76984 -24.6931 -41.4382
LeftUpLeg 4.56585 -1.51738 0.47984
LeftLeg 10.5424 -1.31683 3.99928
LeftFoot -6.7874 0.0970496 -2.03217
LeftToes 1.53707e-010 -1.11459e-010 1.58109e-011
94
root 14.4238 39.7777 3.48267 -68.4421 87.8357 -61.6336
RightUpLeg 8.83574 0.649752 0.833256
RightLeg 2.0236 7.1039 -1.05172
RightFoot -2.75362 -0.534082 5.90479
RightToes 4.07452e-010 -1.59028e-015 9.93923e-017
Spine -8.93827 -0.0893956 0.707446
Spine1 4.1133 -0.288213 -0.262071
HEad -41.8547 0.620376 6.17149
LeftShoulder1 9.93923e-017 -0 1.22299e-017
LeftArm 135.266 -45.6674 -117.937
LeftForeArm -1.35657 -22.5044 8.69821
LeftHand -1.79411 2.01938 41.2478
RightShoulder 1.98785e-016 -4.96962e-017 1.55301e-017
RightArm 72.3807 40.2088 108.13
RightForeArm 48.8346 12.134 1.23997
RightHand 9.77196 -24.6837 -41.4727
LeftUpLeg 4.72634 -1.49922 0.506523
LeftLeg 10.5721 -1.34338 3.99127
LeftFoot -6.84808 0.0919174 -1.98912
LeftToes 1.53707e-010 -1.11459e-010 1.58109e-011
95
root 14.4988 39.7702 3.48006 -67.6117 87.8651 -60.6875
RightUpLeg 9.00861 0.610319 0.770647
RightLeg 2.16445 7.17106 -1.07902
RightFoot -2.91671 -0.527801 5.92911
RightToes 4.07452e-010 -1.59028e-015 9.93923e-017
Spine -9.31435 -0.147839 0.542641
Spine1 4.39196 -0.359536 -0.146952
HEad -43.0427 0.80724 6.88903
LeftShoulder1 9.93923e-017 -0 1.22299e-017
LeftArm 128.564 -46.4264 -119.176
LeftForeArm 6.51596 -21.3781 6.01643
LeftHand -1.73065 2.11286 41.0274
RightShoulder 1.98785e-016 -4.96962e-017 1.55301e-017
RightArm 72.2585 40.9526 108.187
RightForeArm 49.2211 11.9102 1.42146
RightHand 9.6294 -24.602 -40.9739
LeftUpLeg 4.99965 -1.47281 0.464421
LeftLeg 10.533 -1.28538 3.99854
LeftFoot -6.92072 0.0886383 -1.96831
LeftToes 1.53707e-010 -1.11459e-010 1.58109e-011
